<svg class="icon" viewBox="0 0 1088 1024" xmlns="http://www.w3.org/2000/svg" width="128" height="128"><path d="M32.901 510.648a32.901 32.901 0 0 1-22.535-56.789L461.07 34.254a127.099 127.099 0 0 1 169.916 0l447.099 416.45a32.901 32.901 0 0 1-45.07 47.775l-447.1-416.45a61.296 61.296 0 0 0-83.83 0L51.38 501.633a32.45 32.45 0 0 1-18.479 9.014z"/><path d="M796.394 1024H639.1V705.352a94.197 94.197 0 1 0-188.845 0V1024H293.408a126.648 126.648 0 0 1-126.647-126.197v-434.48a32.901 32.901 0 0 1 65.802 0v434.03a60.845 60.845 0 0 0 60.845 60.844h90.141V705.352a160 160 0 0 1 320 0v252.845h90.141a60.845 60.845 0 0 0 62.648-60.394v-434.48a32.901 32.901 0 0 1 65.803 0v434.03A126.648 126.648 0 0 1 796.394 1024z"/></svg>