<svg class="icon" viewBox="0 0 1024 1024" xmlns="http://www.w3.org/2000/svg" width="128" height="128"><path d="M533.333 106.667h-42.666C467.2 106.667 448 87.467 448 64V42.667C448 19.2 467.2 0 490.667 0h42.666C556.8 0 576 19.2 576 42.667V64c0 23.467-19.2 42.667-42.667 42.667z"/><path d="M938.667 874.667H85.333V469.333c0-224 183.467-407.466 407.467-407.466h38.4c224 0 407.467 183.466 407.467 407.466v405.334zm-768-85.334h682.666v-320c0-177.066-145.066-322.133-322.133-322.133h-38.4c-177.067 0-322.133 145.067-322.133 322.133v320z"/><path d="M981.333 874.667H42.667C19.2 874.667 0 855.467 0 832s19.2-42.667 42.667-42.667h938.666c23.467 0 42.667 19.2 42.667 42.667s-19.2 42.667-42.667 42.667z"/><path d="M512 1024c-106.667 0-192-76.8-192-170.667h85.333c0 46.934 46.934 85.334 106.667 85.334s106.667-38.4 106.667-85.334H704C704 947.2 618.667 1024 512 1024z"/></svg>