<svg class="icon" viewBox="0 0 1024 1024" xmlns="http://www.w3.org/2000/svg" width="128" height="128"><path d="M992.618 342.22l-70.943 40.96a40.96 40.96 0 0 1-40.96-70.942l70.943-40.96a40.96 40.96 0 1 1 40.96 70.943zm10.65 640.82a40.96 40.96 0 0 1-40.96 40.96H61.188a40.96 40.96 0 0 1 0-81.92h122.88V614.4h2.826a327.68 327.68 0 1 1 649.707 0h2.827v327.68h122.88a40.96 40.96 0 0 1 40.96 40.96zm-491.52-655.36a243.384 243.384 0 0 0-230.892 327.148h-14.05l-.818 287.252h491.52l-.697-287.252h-14.049A243.384 243.384 0 0 0 511.748 327.68zm9.502 529.777a40.96 40.96 0 1 1-70.942-40.96l59.678-103.383-69.632-40.305a40.96 40.96 0 0 1-30.842-61.112l83.19-144.098a40.96 40.96 0 1 1 70.942 40.96L502.491 614.4l66.519 38.38a40.018 40.018 0 0 1 20.48 4.833 40.96 40.96 0 0 1 14.991 55.951zm250.798-653.845a40.96 40.96 0 0 1-70.942-40.96l40.96-70.943a40.96 40.96 0 1 1 70.942 40.96zm-260.3-39.772a40.96 40.96 0 0 1-40.96-40.96V40.96a40.96 40.96 0 0 1 81.92 0v81.92a40.96 40.96 0 0 1-40.96 40.96zm-204.35 54.764a40.96 40.96 0 0 1-55.951-14.992l-40.96-70.943a40.96 40.96 0 0 1 70.984-40.96l40.96 70.943a40.96 40.96 0 0 1-15.033 55.952zM101.82 383.18l-70.943-40.96a40.96 40.96 0 0 1 40.96-70.943l70.943 40.96a40.96 40.96 0 0 1-40.96 70.943z"/></svg>